<?xml version="1.0" encoding="UTF-8"?>
<svg width="176px" height="40px" viewBox="0 0 176 40" version="1.1" xmlns="http://www.w3.org/2000/svg" xmlns:xlink="http://www.w3.org/1999/xlink">
    <!-- Generator: Sketch 43.2 (39069) - http://www.bohemiancoding.com/sketch -->
    <title>Group@1x</title>
    <desc>Created with Sketch.</desc>
    <defs></defs>
    <g id="Page-1" stroke="none" stroke-width="1" fill="none" fill-rule="evenodd">
        <g id="Group">
            <polygon id="Path" fill="#830B70" points="23.164 40 35.956 3.704 36.06 3.704 36.06 39.272 31.328 39.272 31.328 40 48.384 40 48.384 39.272 43.6 39.272 43.6 3.704 48.384 3.704 48.384 2.976 35.384 2.976 26.232 28.872"></polygon>
            <polygon id="Path" fill="#E41EC3" points="0.768 1.976 0.768 2.704 5.552 2.704 5.552 38.272 0.768 38.272 0.768 39 11.168 39 11.168 38.272 6.384 38.272 6.384 2.704 6.488 2.704 19.332 39 20.164 39 32.956 2.704 33.06 2.704 33.06 38.272 28.328 38.272 28.328 39 45.384 39 45.384 38.272 40.6 38.272 40.6 2.704 45.384 2.704 45.384 1.976 32.384 1.976 23.232 27.872 23.128 27.872 14.132 1.976"></polygon>
            <path d="M68.5369998,2.704 L68.5369998,38.272 L63.7529998,38.272 L63.7529998,39 L80.8609998,39 L80.8609998,38.272 L76.0769998,38.272 L76.0769998,2.704 L77.9489998,2.704 C79.2316729,2.704 80.3756614,2.8339987 81.3809998,3.094 C82.3863382,3.3540013 83.2876625,3.80466346 84.0849998,4.446 C84.8823371,5.08733654 85.5929967,5.97999428 86.2169998,7.124 C86.8410029,8.26800572 87.4129972,9.72399116 87.9329998,11.492 L88.6089998,11.492 L88.6089998,1.976 L56.0049998,1.976 L56.0049998,11.492 L56.6809998,11.492 C57.2010024,9.72399116 57.7729967,8.26800572 58.3969998,7.124 C59.0210029,5.97999428 59.7316625,5.08733654 60.5289998,4.446 C61.3263371,3.80466346 62.2276614,3.3540013 63.2329998,3.094 C64.2383382,2.8339987 65.3823267,2.704 66.6649998,2.704 L68.5369998,2.704 Z" id="Path" fill="#FFFFFF"></path>
            <path d="M104.17,2.704 L104.17,38.272 L99.3859996,38.272 L99.3859996,39 L116.546,39 L116.546,38.272 L111.71,38.272 L111.71,20.176 L115.194,20.176 C116.407339,20.176 117.421329,20.3839979 118.236,20.8 C119.05067,21.2160021 119.73533,21.7793298 120.29,22.49 C120.844669,23.2006702 121.286665,24.0239953 121.616,24.96 C121.945335,25.8960047 122.231332,26.8666616 122.474,27.872 L123.15,27.872 L123.15,11.7 L122.474,11.7 C122.231332,12.8786726 121.919335,13.9446619 121.538,14.898 C121.156664,15.8513381 120.671336,16.6659966 120.082,17.342 C119.492663,18.0180034 118.756004,18.5379982 117.872,18.902 C116.987995,19.2660018 115.904673,19.448 114.622,19.448 L111.71,19.448 L111.71,2.704 L119.562,2.704 C120.948673,2.704 122.153328,2.89466476 123.176,3.276 C124.198671,3.65733524 125.091329,4.20332978 125.854,4.914 C126.61667,5.62467022 127.283997,6.48266164 127.856,7.488 C128.428002,8.49333836 128.956664,9.61999376 129.442,10.868 L130.118,10.868 L130.118,1.976 L99.3859996,1.976 L99.3859996,2.704 L104.17,2.704 Z" id="Path" fill="#FFFFFF"></path>
            <polygon id="Path" fill="#FFFFFF" points="150.462999 9.412 144.638999 23.608 156.598999 23.608"></polygon>
            <polygon id="Path" fill="#FFFFFF" points="133.406999 38.272 137.774999 38.272 153.270999 0.52 154.674999 0.52 171.054999 38.272 175.526999 38.272 175.526999 39 158.054999 39 158.054999 38.272 162.890999 38.272 156.858999 24.336 144.378999 24.336 138.606999 38.272 143.234999 38.272 143.234999 39 133.406999 39"></polygon>
        </g>
    </g>
</svg>