<?xml version="1.0" encoding="UTF-8"?>
<svg width="186px" height="39px" viewBox="0 0 186 39" version="1.1" xmlns="http://www.w3.org/2000/svg" xmlns:xlink="http://www.w3.org/1999/xlink">
    <!-- Generator: Sketch 43.2 (39069) - http://www.bohemiancoding.com/sketch -->
    <title>Group@1x</title>
    <desc>Created with Sketch.</desc>
    <defs></defs>
    <g id="Page-1" stroke="none" stroke-width="1" fill="none" fill-rule="evenodd">
        <g id="Group">
            <polygon id="Path" fill="#F698E7" points="0.768 1.976 0.768 2.704 5.552 2.704 5.552 38.272 0.768 38.272 0.768 39 11.168 39 11.168 38.272 6.384 38.272 6.384 2.704 6.488 2.704 19.332 39 20.164 39 32.956 2.704 33.06 2.704 33.06 38.272 28.328 38.272 28.328 39 45.384 39 45.384 38.272 40.6 38.272 40.6 2.704 45.384 2.704 45.384 1.976 32.384 1.976 23.232 27.872 23.128 27.872 14.132 1.976"></polygon>
            <polygon id="Path" fill="#E41EC3" points="10.768 1.976 10.768 2.704 15.552 2.704 15.552 38.272 10.768 38.272 10.768 39 21.168 39 21.168 38.272 16.384 38.272 16.384 2.704 16.488 2.704 29.332 39 30.164 39 42.956 2.704 43.06 2.704 43.06 38.272 38.328 38.272 38.328 39 55.384 39 55.384 38.272 50.6 38.272 50.6 2.704 55.384 2.704 55.384 1.976 42.384 1.976 33.232 27.872 33.128 27.872 24.132 1.976"></polygon>
            <path d="M78.5369998,2.704 L78.5369998,38.272 L73.7529998,38.272 L73.7529998,39 L90.8609998,39 L90.8609998,38.272 L86.0769998,38.272 L86.0769998,2.704 L87.9489998,2.704 C89.2316729,2.704 90.3756614,2.8339987 91.3809998,3.094 C92.3863382,3.3540013 93.2876625,3.80466346 94.0849998,4.446 C94.8823371,5.08733654 95.5929967,5.97999428 96.2169998,7.124 C96.8410029,8.26800572 97.4129972,9.72399116 97.9329998,11.492 L98.6089998,11.492 L98.6089998,1.976 L66.0049998,1.976 L66.0049998,11.492 L66.6809998,11.492 C67.2010024,9.72399116 67.7729967,8.26800572 68.3969998,7.124 C69.0210029,5.97999428 69.7316625,5.08733654 70.5289998,4.446 C71.3263371,3.80466346 72.2276614,3.3540013 73.2329998,3.094 C74.2383382,2.8339987 75.3823267,2.704 76.6649998,2.704 L78.5369998,2.704 Z" id="Path" fill="#FFFFFF"></path>
            <path d="M114.17,2.704 L114.17,38.272 L109.386,38.272 L109.386,39 L126.546,39 L126.546,38.272 L121.71,38.272 L121.71,20.176 L125.194,20.176 C126.407339,20.176 127.421329,20.3839979 128.236,20.8 C129.05067,21.2160021 129.73533,21.7793298 130.29,22.49 C130.844669,23.2006702 131.286665,24.0239953 131.616,24.96 C131.945335,25.8960047 132.231332,26.8666616 132.474,27.872 L133.15,27.872 L133.15,11.7 L132.474,11.7 C132.231332,12.8786726 131.919335,13.9446619 131.538,14.898 C131.156664,15.8513381 130.671336,16.6659966 130.082,17.342 C129.492663,18.0180034 128.756004,18.5379982 127.872,18.902 C126.987995,19.2660018 125.904673,19.448 124.622,19.448 L121.71,19.448 L121.71,2.704 L129.562,2.704 C130.948673,2.704 132.153328,2.89466476 133.176,3.276 C134.198671,3.65733524 135.091329,4.20332978 135.854,4.914 C136.61667,5.62467022 137.283997,6.48266164 137.856,7.488 C138.428002,8.49333836 138.956664,9.61999376 139.442,10.868 L140.118,10.868 L140.118,1.976 L109.386,1.976 L109.386,2.704 L114.17,2.704 Z" id="Path" fill="#FFFFFF"></path>
            <polygon id="Path" fill="#FFFFFF" points="160.462999 9.412 154.638999 23.608 166.598999 23.608"></polygon>
            <polygon id="Path" fill="#FFFFFF" points="143.406999 38.272 147.774999 38.272 163.270999 0.52 164.674999 0.52 181.054999 38.272 185.526999 38.272 185.526999 39 168.054999 39 168.054999 38.272 172.890999 38.272 166.858999 24.336 154.378999 24.336 148.606999 38.272 153.234999 38.272 153.234999 39 143.406999 39"></polygon>
        </g>
    </g>
</svg>